<?xml version="1.0" standalone="no"?>
<!DOCTYPE svg PUBLIC "-//W3C//DTD SVG 20010904//EN"
 "http://www.w3.org/TR/2001/REC-SVG-20010904/DTD/svg10.dtd">
<svg version="1.0" xmlns="http://www.w3.org/2000/svg"
 width="512.000000pt" height="512.000000pt" viewBox="0 0 512.000000 512.000000"
 preserveAspectRatio="xMidYMid meet">

<g transform="translate(0.000000,512.000000) scale(0.100000,-0.100000)"
fill="#000000" stroke="none">
<path d="M1037 4415 c-190 -52 -337 -205 -381 -397 -22 -94 -23 -782 -1 -874
46 -196 194 -350 382 -399 82 -21 832 -22 912 0 174 46 319 186 374 360 21 67
22 85 22 475 0 390 -1 408 -22 475 -56 177 -200 314 -378 360 -80 20 -833 21
-908 0z m915 -223 c79 -39 129 -93 158 -170 20 -53 21 -72 18 -451 l-3 -396
-27 -51 c-35 -66 -105 -128 -176 -154 -53 -20 -71 -21 -446 -18 -388 3 -391 3
-438 27 -64 31 -126 95 -157 161 l-26 55 -3 350 c-4 446 3 489 105 587 77 75
108 82 378 89 132 3 310 5 395 5 155 -1 156 -1 222 -34z"/>
<path d="M3173 4415 c-177 -48 -321 -186 -376 -360 -21 -67 -22 -85 -22 -475
0 -390 1 -408 22 -475 38 -119 127 -235 230 -299 24 -14 76 -37 117 -51 l75
-25 401 0 c334 0 412 3 463 16 189 49 336 200 382 395 22 93 22 785 0 878 -45
190 -197 346 -385 396 -78 21 -830 21 -907 0z m905 -224 c68 -31 144 -113 169
-183 16 -48 18 -90 18 -433 l0 -380 -26 -55 c-31 -66 -93 -130 -157 -161 -47
-24 -50 -24 -438 -27 -375 -3 -393 -2 -446 18 -71 26 -141 88 -176 154 l-27
51 -3 387 c-2 250 1 402 8 427 13 51 65 127 112 164 81 65 101 67 528 64 382
-2 385 -2 438 -26z"/>
<path d="M958 2371 c-153 -49 -274 -182 -307 -339 -7 -35 -11 -207 -11 -500 0
-365 3 -458 15 -505 36 -140 114 -236 243 -299 l85 -43 481 -3 c516 -4 546 -2
646 47 67 32 156 119 193 188 52 98 57 148 57 618 0 470 -5 521 -57 616 -59
109 -150 185 -264 220 -56 18 -97 19 -542 18 -439 0 -487 -2 -539 -18z m1068
-226 c30 -19 60 -49 79 -79 l30 -49 3 -471 3 -470 -26 -53 c-15 -29 -42 -65
-60 -79 -68 -52 -93 -54 -555 -54 -491 0 -502 1 -575 75 -73 73 -75 86 -75
565 0 459 3 482 61 553 60 73 89 81 309 88 107 3 321 5 476 5 l281 -1 49 -30z"/>
<path d="M3561 2304 c-47 -33 -51 -62 -51 -374 l0 -290 -305 0 -305 0 -32 -29
c-28 -25 -33 -36 -33 -76 0 -40 5 -51 33 -76 l32 -29 305 0 305 0 0 -290 c0
-312 4 -341 51 -374 30 -21 88 -21 118 0 47 33 51 62 51 374 l0 290 294 0
c167 0 306 4 320 10 64 24 82 118 32 169 l-25 24 -310 -2 -311 -2 0 296 c0
317 -4 346 -51 379 -13 9 -39 16 -59 16 -20 0 -46 -7 -59 -16z"/>
</g>
</svg>
