<?xml version="1.0" standalone="no"?>
<!DOCTYPE svg PUBLIC "-//W3C//DTD SVG 20010904//EN"
 "http://www.w3.org/TR/2001/REC-SVG-20010904/DTD/svg10.dtd">
<svg version="1.0" xmlns="http://www.w3.org/2000/svg"
 width="32.000000pt" height="32.000000pt" viewBox="0 0 32.000000 32.000000"
 preserveAspectRatio="xMidYMid meet">

<g transform="translate(0.000000,32.000000) scale(0.100000,-0.100000)"
fill="#000000" stroke="none">
<path d="M88 303 c12 -2 32 -2 45 0 12 2 2 4 -23 4 -25 0 -35 -2 -22 -4z"/>
<path d="M22 288 c-27 -27 -8 -89 27 -87 10 0 7 4 -6 9 -17 7 -23 18 -23 40 0
22 6 33 23 40 13 5 16 9 7 9 -9 1 -21 -4 -28 -11z"/>
<path d="M178 290 c12 -5 22 -12 22 -15 0 -3 -10 -10 -22 -16 l-23 -10 23 5
c30 6 30 -31 0 -44 -14 -5 -17 -9 -7 -9 22 -1 39 19 39 49 0 30 -17 50 -39 49
-10 0 -7 -4 7 -9z"/>
<path d="M83 243 c15 -2 37 -2 50 0 12 2 0 4 -28 4 -27 0 -38 -2 -22 -4z"/>
<path d="M11 189 c-1 -21 24 -43 41 -36 8 3 6 6 -5 6 -10 1 -22 11 -27 24 -6
15 -9 17 -9 6z"/>
<path d="M88 193 c12 -2 32 -2 45 0 12 2 2 4 -23 4 -25 0 -35 -2 -22 -4z"/>
<path d="M201 187 c-1 -10 -11 -22 -23 -27 -16 -6 -18 -9 -7 -9 21 -1 43 24
36 41 -3 8 -6 6 -6 -5z"/>
<path d="M11 139 c-1 -21 24 -43 41 -36 8 3 6 6 -5 6 -10 1 -22 11 -27 24 -6
15 -9 17 -9 6z"/>
<path d="M88 143 c12 -2 32 -2 45 0 12 2 2 4 -23 4 -25 0 -35 -2 -22 -4z"/>
<path d="M221 146 c2 -2 18 -6 34 -10 22 -5 26 -4 15 4 -14 9 -59 15 -49 6z"/>
<path d="M189 123 c-13 -16 -12 -17 4 -4 9 7 17 15 17 17 0 8 -8 3 -21 -13z"/>
<path d="M265 100 c-19 -20 -32 -27 -39 -20 -16 16 -30 12 -16 -5 7 -8 18 -15
24 -15 15 0 72 58 65 65 -3 3 -18 -9 -34 -25z"/>
<path d="M11 89 c-1 -21 24 -43 41 -36 8 3 6 6 -5 6 -10 1 -22 11 -27 24 -6
15 -9 17 -9 6z"/>
<path d="M88 93 c12 -2 32 -2 45 0 12 2 2 4 -23 4 -25 0 -35 -2 -22 -4z"/>
<path d="M172 80 c0 -14 2 -19 5 -12 2 6 2 18 0 25 -3 6 -5 1 -5 -13z"/>
<path d="M302 80 c0 -14 2 -19 5 -12 2 6 2 18 0 25 -3 6 -5 1 -5 -13z"/>
<path d="M88 43 c12 -2 32 -2 45 0 12 2 2 4 -23 4 -25 0 -35 -2 -22 -4z"/>
<path d="M180 46 c0 -2 8 -10 18 -17 15 -13 16 -12 3 4 -13 16 -21 21 -21 13z"/>
<path d="M279 33 c-13 -16 -12 -17 4 -4 9 7 17 15 17 17 0 8 -8 3 -21 -13z"/>
<path d="M228 13 c6 -2 18 -2 25 0 6 3 1 5 -13 5 -14 0 -19 -2 -12 -5z"/>
</g>
</svg>
